<?xml version="1.0" encoding="UTF-8" standalone="no"?>
<svg
   xmlns:dc="http://purl.org/dc/elements/1.1/"
   xmlns:cc="http://creativecommons.org/ns#"
   xmlns:rdf="http://www.w3.org/1999/02/22-rdf-syntax-ns#"
   xmlns:svg="http://www.w3.org/2000/svg"
   xmlns="http://www.w3.org/2000/svg"
   xmlns:sodipodi="http://sodipodi.sourceforge.net/DTD/sodipodi-0.dtd"
   xmlns:inkscape="http://www.inkscape.org/namespaces/inkscape"
   width="106mm"
   height="31mm"
   viewBox="0 0 106 31"
   version="1.1"
   id="svg8"
   inkscape:version="1.0.2-2 (e86c870879, 2021-01-15)"
   sodipodi:docname="Coollick.svg">
  <defs
     id="defs2" />
  <sodipodi:namedview
     id="base"
     pagecolor="#ffffff"
     bordercolor="#666666"
     borderopacity="1.0"
     inkscape:pageopacity="0.0"
     inkscape:pageshadow="2"
     inkscape:zoom="0.98994949"
     inkscape:cx="15.635315"
     inkscape:cy="-34.063344"
     inkscape:document-units="mm"
     inkscape:current-layer="layer1"
     inkscape:document-rotation="0"
     showgrid="false"
     inkscape:window-width="1920"
     inkscape:window-height="1017"
     inkscape:window-x="1912"
     inkscape:window-y="-8"
     inkscape:window-maximized="1"
     showguides="false">
    <inkscape:grid
       type="xygrid"
       id="grid858" />
  </sodipodi:namedview>
  <metadata
     id="metadata5">
    <rdf:RDF>
      <cc:Work
         rdf:about="">
        <dc:format>image/svg+xml</dc:format>
        <dc:type
           rdf:resource="http://purl.org/dc/dcmitype/StillImage" />
        <dc:title />
      </cc:Work>
    </rdf:RDF>
  </metadata>
  <g
     inkscape:label="F.Cu"
     inkscape:groupmode="layer"
     id="layer1"
     style="mix-blend-mode:normal">
    <path
       style="fill:#000000;stroke-width:0.095754"
       d="m 94.286158,30.255327 c -0.770748,-0.09405 -1.793305,-0.418612 -2.489603,-0.790209 -0.415246,-0.221607 -0.4307,-0.245709 -0.425602,-0.663712 l 0.0053,-0.433756 -0.531936,-0.166869 c -0.292566,-0.09178 -0.778938,-0.291139 -1.08083,-0.443025 -0.612408,-0.308112 -0.7493,-0.565487 -0.552926,-1.039576 0.10038,-0.242338 0.08844,-0.340556 -0.08491,-0.69865 -0.241884,-0.499666 -0.269587,-1.384539 -0.06179,-1.973513 0.423793,-1.201156 1.593583,-1.930662 3.111859,-1.940619 l 0.737977,-0.0048 -0.09367,-0.349143 c -0.08783,-0.327393 -0.160745,-0.381085 -1.170406,-0.861866 -1.293659,-0.616015 -2.445575,-1.460004 -3.650126,-2.674385 l -0.893872,-0.901166 -0.551092,0.21526 c -0.3031,0.118392 -0.853329,0.358312 -1.222731,0.533155 -0.703034,0.332756 -1.831439,0.55551 -2.319534,0.457892 -0.222789,-0.04456 -0.293546,-0.01293 -0.377568,0.168764 -0.193295,0.418 -0.89296,1.116493 -1.330556,1.32833 -0.892262,0.431936 -1.772437,0.09501 -2.337795,-0.894894 C 78.669892,18.603431 78.391,17.578974 78.391,17.009076 c 0,-0.402027 0.05292,-0.381634 -1.62922,-0.62783 -4.042485,-0.591652 -6.684688,-0.492921 -12.569651,0.469692 -5.291807,0.86559 -8.649617,1.108999 -10.160649,0.736553 -1.844853,-0.454729 -3.027928,-1.718012 -3.026589,-3.231782 0.0026,-2.992693 5.784207,-4.9444469 8.321722,-2.809268 0.166918,0.140452 0.368956,0.381969 0.448972,0.536705 0.173515,0.33554 0.200933,1.440528 0.04565,1.839656 -0.05919,0.152132 -0.09564,0.286321 -0.081,0.298197 0.01464,0.01188 1.146939,-0.04246 2.516221,-0.120743 2.738047,-0.156541 11.313654,-0.216413 12.735278,-0.08892 l 0.861785,0.07729 -0.574523,-0.288828 C 72.794158,12.55061 71.222699,9.5855448 71.588524,6.8365383 71.928636,4.2807509 73.27764,2.3193888 75.37475,1.3316212 c 2.524561,-1.18910397 5.502646,-0.53651567 7.325178,1.6051681 0.236991,0.2784909 0.452438,0.50743 0.47877,0.5087524 0.02633,0.00132 0.175502,-0.2452566 0.331488,-0.5479541 0.418604,-0.8123151 1.402467,-1.7629761 2.089891,-2.01936235 0.673534,-0.25120538 0.955712,-0.2560443 1.464183,-0.0251083 0.344907,0.15664905 0.736126,0.52535275 0.823943,0.77652425 0.01698,0.048575 0.17771,0.054471 0.365455,0.013407 0.830667,-0.1816863 1.654952,0.3224807 1.951851,1.1938338 0.233352,0.6848525 0.200291,1.843693 -0.08465,2.966956 -0.131662,0.5190258 -0.239385,0.9534912 -0.239385,0.9654787 0,0.011988 0.145634,0.049117 0.323631,0.082509 0.390863,0.073327 0.965187,0.527704 1.171645,0.9269492 0.187014,0.3616455 0.189093,1.0941586 0.0044,1.5362863 -0.07662,0.1833717 -0.291834,0.4551091 -0.478258,0.6038609 l -0.338953,0.2704569 0.282062,0.171533 c 0.155135,0.09434 0.364697,0.30741 0.465691,0.473484 l 0.183629,0.301951 0.428902,-0.663014 c 0.235896,-0.364659 0.525832,-0.8625261 0.644301,-1.1063722 l 0.2154,-0.4433571 -0.203141,-0.5591984 c -0.437872,-1.2053597 -0.429588,-2.1034879 0.02299,-2.4927814 0.360905,-0.3104372 0.768682,-0.2875664 1.119009,0.062761 l 0.283642,0.2836424 0.09858,-0.2592797 c 0.23479,-0.6175308 0.858425,-1.1697908 1.320984,-1.1697908 0.533748,0 0.945821,0.4916602 0.846691,1.0102235 -0.03788,0.1981542 -0.01691,0.2333438 0.108386,0.1818732 0.738032,-0.3031801 1.240012,-0.2638558 1.542619,0.1208472 0.350574,0.4456821 0.210542,1.0464483 -0.3733,1.6015283 -0.162696,0.154681 -0.295811,0.3064673 -0.295811,0.3373029 0,0.1647792 1.520182,0.7362992 2.181961,0.8203195 0.278446,0.035351 0.701126,0.1678826 0.939286,0.2945134 0.30951,0.1645714 0.48017,0.2050016 0.59835,0.1417532 0.27624,-0.1478403 1.67024,-1.6480331 2.0757,-2.2338272 0.40326,-0.5826102 0.6394,-0.7337119 0.86023,-0.5504378 0.0743,0.061655 0.30522,0.5499696 0.51316,1.0851433 1.83539,4.7235657 1.11253,9.0946527 -1.97467,11.9407717 -0.36899,0.340176 -0.91092,0.769313 -1.20428,0.95364 -0.43263,0.271826 -0.53426,0.384885 -0.53799,0.598462 -0.003,0.184855 0.0434,0.263323 0.15667,0.263323 0.31934,0 0.98451,0.403017 1.17567,0.712313 0.23507,0.38036 0.2624,1.177915 0.0542,1.580612 -0.13752,0.265942 -0.13083,0.282736 0.27479,0.689461 0.55441,0.555927 0.68676,1.116122 0.47293,2.001741 -0.082,0.339614 -0.14276,0.864319 -0.13502,1.16601 0.0185,0.721138 -0.15555,1.03577 -0.8597,1.554142 -0.77306,0.569094 -1.10457,0.665134 -2.029614,0.587989 -0.690727,-0.05761 -0.804031,-0.04131 -1.2583,0.18094 -0.27457,0.134335 -0.753944,0.285703 -1.065274,0.336373 -0.884316,0.143927 -2.417588,0.18761 -3.206432,0.09135 z m 2.750636,-0.529973 c 0.402452,-0.08313 0.989952,-0.281493 1.305557,-0.440809 0.546827,-0.276038 0.610957,-0.286574 1.362992,-0.223929 0.671067,0.0559 0.852987,0.0375 1.215667,-0.122926 0.52775,-0.233451 1.21697,-0.843224 1.21697,-1.076694 0,-0.147915 -0.0725,-0.12507 -0.48566,0.152941 -0.5829,0.39226 -0.90713,0.485577 -2.099693,0.604308 -0.603942,0.06013 -1.183203,0.192389 -1.723572,0.393536 -1.550437,0.577138 -3.509884,0.487109 -5.041238,-0.231626 -0.49859,-0.234011 -0.713088,-0.292578 -0.78997,-0.215696 -0.188228,0.188228 -0.110444,0.302775 0.350985,0.516865 1.63308,0.757701 3.137234,0.964341 4.687962,0.64403 z m -0.04405,-0.947012 c 0.356333,-0.07551 0.894949,-0.24392 1.196924,-0.374248 0.391318,-0.168886 0.782868,-0.24943 1.362957,-0.280367 0.447655,-0.02387 1.007815,-0.101106 1.244805,-0.17163 0.5832,-0.173548 1.26831,-0.874845 1.43449,-1.468378 0.22708,-0.81105 -0.0443,-1.975764 -0.49363,-2.118368 -0.0917,-0.02911 -0.36397,0.01404 -0.60503,0.09588 -0.77336,0.262565 -0.84225,0.147144 -0.19122,-0.320393 0.50221,-0.360661 0.71717,-0.722751 0.71717,-1.208041 0,-0.447761 -0.12963,-0.679698 -0.4816,-0.861714 l -0.28443,-0.147081 -0.001,0.457291 c -7.7e-4,0.251509 -0.0346,0.509406 -0.0751,0.573104 -0.12346,0.194253 -1.120053,0.588339 -1.777266,0.702787 -0.45898,0.07993 -0.803877,0.08025 -1.322568,0.0012 -1.081881,-0.164818 -1.274006,-0.24773 -1.289019,-0.556276 -0.0071,-0.144954 -0.06242,-0.388823 -0.123045,-0.541929 l -0.110221,-0.278375 -0.331786,0.362226 c -0.182484,0.199229 -0.331787,0.460707 -0.331787,0.581068 0,0.277786 0.463899,0.673799 0.965267,0.824012 0.465326,0.139416 0.328351,0.270032 -0.285418,0.272169 l -0.421321,0.0015 0.387823,0.280937 c 0.559766,0.405492 0.583191,0.517587 0.05252,0.251308 -1.115707,-0.559834 -2.292268,-0.574459 -3.29326,-0.04094 -0.320848,0.171011 -0.693993,0.455975 -0.829209,0.633253 -0.540161,0.708187 -0.575516,1.796419 -0.07532,2.318507 0.329625,0.344055 1.395855,0.837228 2.176468,1.006701 0.798365,0.173327 1.982046,0.175796 2.784241,0.0058 z M 91.16871,27.458709 c -0.07951,-0.258656 0.01821,-0.185933 -0.662696,-0.493181 -0.544716,-0.245792 -0.578506,-0.24995 -0.699017,-0.08602 -0.115069,0.156524 -0.06735,0.200667 0.522606,0.483452 0.781784,0.374734 0.930062,0.391655 0.839107,0.09575 z m 0.438339,-2.306089 c 0.572423,-0.780331 1.395469,-1.179326 2.628172,-1.274079 l 0.80951,-0.06222 -0.05495,-0.400916 c -0.05729,-0.417953 0.09851,-0.855289 0.391235,-1.098228 0.08247,-0.06844 0.149945,-0.155523 0.149945,-0.193508 0,-0.03799 -0.377031,-0.145811 -0.837847,-0.239608 -0.460816,-0.0938 -0.945571,-0.192612 -1.077233,-0.219586 l -0.239384,-0.04904 0.234686,0.255213 c 0.129077,0.140365 0.430702,0.314056 0.670278,0.385979 0.359908,0.108047 0.40317,0.143898 0.24899,0.206343 -0.10263,0.04157 -0.328723,0.07845 -0.502426,0.08197 -0.346166,0.007 -0.417296,0.10509 -0.140027,0.193092 0.097,0.03079 0.280129,0.168869 0.406954,0.30685 0.126826,0.137981 0.187503,0.231992 0.134838,0.208914 -0.05266,-0.02308 -0.298278,-0.137779 -0.545809,-0.254889 -1.016759,-0.481042 -2.144543,-0.47531 -3.107186,0.01579 -0.861805,0.439658 -1.278334,1.089149 -1.278334,1.993298 0,0.647119 0.247623,1.012968 0.949874,1.403381 l 0.534312,0.297048 0.177567,-0.59436 c 0.09766,-0.326898 0.298739,-0.759542 0.446838,-0.961431 z m 7.992109,-2.239518 0.453242,-0.170276 0.0228,-1.43631 c 0.031,-1.948099 0.32009,-3.055329 1.01264,-3.878035 l 0.20151,-0.239385 -0.0603,0.454831 c -0.0332,0.250157 -0.0332,0.454831 9e-5,0.454831 0.28776,0 1.87497,-1.404649 2.4892,-2.202885 0.8562,-1.112696 1.02968,-1.496475 1.10348,-2.441182 0.11437,-1.464236 -0.0478,-2.763429 -0.63464,-5.0847553 -0.17978,-0.7111121 -0.46055,-1.2028327 -0.64614,-1.1316147 -0.0738,0.028335 -0.21338,0.2321105 -0.31009,0.452833 -0.10537,0.2404823 -0.55149,0.7741325 -1.11317,1.3315806 -0.51554,0.511646 -0.93734,0.9593638 -0.93734,0.9949284 0,0.03556 0.0933,0.251489 0.20735,0.479832 0.18183,0.364076 0.19361,0.461007 0.0958,0.787629 -0.15821,0.528065 -0.15316,0.541795 0.26932,0.732307 0.44107,0.198896 0.67239,0.503675 0.67239,0.885938 0,0.54033 -0.45429,0.909372 -1.27001,1.031697 -0.24946,0.03741 -0.45357,0.07941 -0.45357,0.09333 0,0.01392 0.0665,0.184549 0.14786,0.379172 0.15634,0.374184 0.11786,0.660391 -0.12615,0.938267 -0.22929,0.261125 -1.11775,0.227653 -1.592988,-0.06001 l -0.374355,-0.226603 -0.499613,0.228731 c -0.916711,0.419655 -2.0062,0.638517 -2.900774,0.582707 l -0.803148,-0.05011 -0.627024,0.531921 c -0.344863,0.292556 -0.590985,0.47121 -0.546936,0.397008 0.525811,-0.885764 0.957561,-1.419592 1.359335,-1.68072 1.202378,-0.781472 2.989008,-1.216006 3.761406,-0.914827 0.131662,0.05134 0.380627,0.228932 0.553257,0.39465 0.4974,0.477492 1.20746,0.654431 1.33129,0.331741 0.0674,-0.175683 -0.16828,-0.630528 -0.528186,-1.019313 -0.150912,-0.163017 -0.209808,-0.297064 -0.154018,-0.350536 0.04968,-0.04762 0.487764,-0.101198 0.973504,-0.119061 0.74727,-0.02748 0.91451,-0.06384 1.08684,-0.236261 0.16712,-0.167197 0.18456,-0.239502 0.0972,-0.402764 -0.10748,-0.200832 -0.62055,-0.394786 -1.06178,-0.401383 -0.13166,-0.002 -0.32119,-0.0655 -0.42116,-0.141172 -0.20303,-0.153677 -0.20308,-0.15358 0.40199,-0.846139 0.30718,-0.351592 0.31387,-0.375313 0.15525,-0.550585 -0.23739,-0.262311 -0.51391,-0.228527 -1.243906,0.151975 -0.353634,0.184326 -0.764492,0.335138 -0.913018,0.335138 h -0.270048 l 0.05812,-0.6224 c 0.05788,-0.619837 0.05711,-0.622401 -0.188271,-0.622401 -0.135515,0 -0.315794,0.0694 -0.400619,0.154227 -0.249606,0.249606 -0.618287,1.04759 -0.73462,1.590036 -0.0594,0.27697 -0.177639,0.559066 -0.262755,0.626879 -0.576268,0.459123 -3.545372,1.551117 -4.798823,1.764938 -0.722217,0.1232 -2.585394,-0.05328 -2.585309,-0.244878 2.7e-5,-0.05991 0.08196,-0.324424 0.18207,-0.587817 0.414337,-1.090115 0.344547,-2.047613 -0.224101,-3.074566 L 89.24567,9.7306063 89.488338,9.2964272 c 0.321737,-0.5756518 0.330064,-1.260806 0.02139,-1.7602491 l -0.221277,-0.3580327 0.23955,-0.5983829 c 0.542885,-1.3561022 0.599841,-2.9335272 0.134587,-3.7274234 -0.297973,-0.5084526 -0.622501,-0.7444938 -1.02359,-0.7444938 -0.363877,0 -1.012899,0.299707 -1.444973,0.6672644 l -0.3288,0.2797031 0.353879,-0.054276 c 0.468097,-0.071795 0.764946,0.011496 1.127126,0.3162504 0.684965,0.5763595 0.92506,1.7198572 0.634928,3.0239497 -0.171593,0.7712772 -0.691445,1.9547484 -0.954255,2.1724153 -0.150877,0.1249618 -0.150891,0.1446958 -1.91e-4,0.3112005 0.201232,0.2223608 0.195389,0.2219596 -0.443318,-0.030409 C 87.173716,8.6320708 86.822812,8.5811173 86.003454,8.5645288 85.424143,8.5527999 84.919513,8.5387385 84.882055,8.5332824 84.844597,8.5278244 84.750401,8.3093694 84.67273,8.0478251 84.43264,7.2393552 83.839549,5.827369 83.438212,5.1087795 82.346644,3.1543366 81.035129,1.9871075 79.473675,1.5804006 c -0.711403,-0.1852971 -2.226899,-0.1834875 -2.944856,0.00352 -1.867091,0.4863155 -3.370781,2.0579881 -3.936717,4.114702 -0.239498,0.8703758 -0.288253,2.529366 -0.101405,3.4504982 0.439312,2.1657332 1.972701,3.8813582 4.033115,4.5124302 0.4664,0.142851 0.889883,0.175401 2.250218,0.172953 1.667971,-0.003 2.166819,-0.08195 2.239604,-0.354434 0.0178,-0.06662 0.08328,-0.333716 0.145511,-0.593542 0.06224,-0.259828 0.307856,-0.765282 0.545821,-1.123232 0.411635,-0.619187 0.709926,-0.9457 0.590478,-0.646343 -0.02972,0.07447 -0.144122,0.361595 -0.254239,0.638055 l -0.200212,0.502655 0.549167,-0.447782 c 2.175927,-1.774211 5.041631,-1.581997 6.012954,0.403314 0.226639,0.463234 0.249338,0.604106 0.218815,1.357946 -0.02863,0.707117 -0.08348,0.945614 -0.34436,1.497268 -0.170666,0.360897 -0.284617,0.697735 -0.253224,0.74853 0.03139,0.05079 0.367019,0.321567 0.745836,0.601715 1.428106,1.056135 3.342926,1.958725 5.102074,2.404969 0.504484,0.127974 0.976353,0.232679 1.048596,0.232679 0.09153,0 0.134247,-0.137907 0.140898,-0.454832 0.0106,-0.505266 0.154765,-1.111136 0.172419,-0.724626 0.01985,0.434599 0.584092,2.415545 0.963255,3.381799 0.666006,1.697246 0.638025,1.658623 1.297188,1.790511 0.705282,0.141115 1.504296,0.08946 2.104563,-0.136049 z M 77.720722,3.5345794 c 0,-0.2244549 0.642471,-0.7425615 1.00518,-0.8106062 0.334503,-0.062753 0.394537,-0.04085 0.639528,0.2333429 0.322845,0.3613276 0.355507,0.561576 0.05756,0.3528831 -0.301533,-0.2112017 -0.640565,-0.1854381 -1.183329,0.089923 -0.546737,0.2773782 -0.518936,0.2701755 -0.518936,0.1344567 z M 76.95469,3.1307275 c 0,-0.023898 0.06437,-0.1668724 0.143041,-0.3177203 0.174669,-0.3349129 0.185361,-0.7206031 0.02453,-0.8848423 -0.09702,-0.099078 -0.07082,-0.1002488 0.138364,-0.00618 0.14193,0.063826 0.277532,0.1668034 0.301338,0.2288387 0.09212,0.2400714 -0.0679,0.6392908 -0.331488,0.826982 C 77.078792,3.0858112 76.95469,3.1546258 76.95469,3.1307275 Z M 95.329728,20.660177 c -0.151237,-0.434483 -0.275552,-0.907645 -0.276257,-1.051469 -0.001,-0.206436 -0.05673,-0.27412 -0.264604,-0.321438 -1.052762,-0.239634 -1.851461,-0.465547 -2.534219,-0.716808 -1.382571,-0.508799 -3.225012,-1.562148 -4.238022,-2.422937 l -0.380663,-0.323462 0.251871,-0.466531 c 0.587442,-1.088098 0.706929,-2.153528 0.331527,-2.956135 -0.948867,-2.028674 -3.853879,-2.115592 -5.902183,-0.176593 l -0.622667,0.589439 0.0013,0.990501 c 0.0012,0.899754 0.02942,1.056299 0.308132,1.708657 0.231619,0.542141 0.260046,0.662026 0.115984,0.489144 -0.104958,-0.125957 -0.203987,-0.212135 -0.220064,-0.191508 -0.01608,0.02063 -0.08288,0.285967 -0.148453,0.589647 -0.175694,0.813687 -0.727525,1.86008 -1.075963,2.040264 -0.649107,0.335666 -1.093132,-0.02354 -1.275481,-1.031838 -0.08293,-0.458542 -0.151179,-0.610395 -0.28602,-0.636363 -0.161024,-0.03101 -0.1714,0.01441 -0.114289,0.500344 0.149394,1.271107 0.845939,2.358111 1.510589,2.357373 0.564832,-6.7e-4 1.17792,-0.479578 1.671469,-1.305767 l 0.236838,-0.396463 1.026405,-0.039 c 0.922643,-0.03506 1.087898,-0.07 1.634693,-0.345631 0.334562,-0.168644 0.710721,-0.306625 0.835912,-0.306625 0.31574,0 1.002194,-0.27757 1.260474,-0.509677 0.118288,-0.106301 0.2298,-0.175151 0.247805,-0.152999 0.01801,0.02215 0.163654,0.234177 0.323662,0.471168 0.708973,1.050071 2.159174,2.256398 3.566,2.966323 1.11432,0.562318 3.583327,1.408721 4.1825,1.433808 0.06687,0.0028 0.0029,-0.299363 -0.166288,-0.785419 z m 6.315662,-1.175297 c 0.81538,-0.637989 1.60363,-1.54671 2.07896,-2.396664 0.37677,-0.673738 0.74713,-1.571336 0.67719,-1.641268 -0.0235,-0.02352 -0.18558,0.164943 -0.36013,0.418801 -0.59481,0.865024 -2.25409,2.333939 -2.86731,2.538344 -0.0584,0.01948 -0.14451,0.249598 -0.19129,0.511379 -0.0468,0.261781 -0.10957,0.616005 -0.13955,0.787165 -0.03,0.171161 -0.0139,0.311201 0.0358,0.311201 0.0497,0 0.39452,-0.238032 0.76634,-0.528958 z M 80.431212,17.92769 c 0.215406,-0.23802 0.531499,-0.974435 0.833094,-1.940892 0.25311,-0.811088 0.253907,-0.822564 0.07961,-1.147554 -0.09683,-0.180549 -0.176054,-0.380263 -0.176054,-0.443807 0,-0.195598 -0.12571,-0.210311 -0.671255,-0.07856 -0.473397,0.114324 -0.492344,0.128074 -0.190531,0.138276 l 0.335139,0.01133 -0.239359,0.199095 c -0.205303,0.170769 -0.321105,0.190879 -0.813909,0.141346 -3.002028,-0.301746 -4.864828,-0.383214 -8.857268,-0.387367 -3.932526,-0.0041 -5.103125,0.03666 -9.802442,0.341206 -1.513532,0.09809 -1.643447,0.121823 -2.05871,0.376112 -0.243778,0.149279 -0.572501,0.30063 -0.730495,0.336336 -0.322459,0.07287 -0.296485,0.03677 0.30613,-0.425567 0.245705,-0.188508 0.501925,-0.512809 0.659316,-0.834503 0.218294,-0.446179 0.249776,-0.610618 0.207067,-1.081615 -0.05552,-0.612237 -0.2804,-1.131657 -0.58558,-1.352526 -1.413462,-1.02297 -4.795913,-0.53588 -6.228767,0.896974 -0.551053,0.551052 -0.91759,1.272983 -0.916377,1.804893 0.0019,0.831418 0.624947,1.719287 1.530776,2.181406 1.394894,0.711622 4.086036,0.647834 9.770053,-0.231579 5.924757,-0.916661 7.940463,-1.099291 10.285537,-0.931909 2.381184,0.169958 5.743142,0.724554 6.585288,1.086321 0.58516,0.251371 0.804765,0.486657 0.373769,0.400458 -0.281171,-0.05623 -0.298938,-0.04285 -0.298938,0.225155 0,0.39065 0.184645,0.888043 0.329666,0.888043 0.06568,0 0.189089,-0.07698 0.274237,-0.171068 z m 17.200642,-2.949904 c 0.685241,-0.255963 0.702069,-0.269594 0.440465,-0.356796 -0.382717,-0.127572 -1.403103,0.07594 -2.110466,0.420926 l -0.574524,0.280198 0.766032,-0.0391 c 0.525801,-0.02684 0.989462,-0.122558 1.478493,-0.305228 z m -5.22749,-1.740685 c 0.03177,-0.198671 0.224873,-0.640336 0.429121,-0.981478 0.204248,-0.341141 0.400288,-0.806948 0.435645,-1.035125 0.157176,-1.014377 0.951289,-2.0285212 1.998734,-2.5525357 0.369513,-0.1848598 0.612191,-0.3363445 0.539285,-0.3366327 -0.07291,-2.872e-4 0.15207,-0.1713048 0.499948,-0.380037 0.638184,-0.382921 1.33045,-1.0469892 1.33045,-1.2762587 0,-0.1910579 -0.206286,-0.3540139 -0.448148,-0.3540139 -0.120086,0 -0.499959,0.1156536 -0.844163,0.2570075 C 95.596925,6.8853355 95.417602,6.8153776 95.607501,6.2902207 96.071733,5.006407 95.155876,4.974363 94.481557,6.2508256 94.29509,6.6037997 94.088618,6.8932601 94.022729,6.8940702 93.956839,6.8948362 93.729855,6.7172021 93.518318,6.4992277 93.14434,6.1138687 93.128458,6.107661 92.9439,6.2746837 c -0.26983,0.2441927 -0.2426,0.7396439 0.09623,1.7509935 0.280482,0.8371808 0.283055,0.862523 0.13247,1.3044669 -0.08446,0.247885 -0.471717,0.9236229 -0.860563,1.5016389 -0.388845,0.578016 -0.706993,1.136707 -0.706993,1.241536 0,0.350949 -0.264314,0.82825 -0.612509,1.106076 -0.189764,0.151413 -0.345026,0.307613 -0.345028,0.347111 -2e-6,0.0395 0.382294,0.07182 0.849545,0.07182 h 0.849547 z m 0.909864,0.08488 c 0.107451,-0.06809 0.104709,-0.128385 -0.01627,-0.357611 l -0.145507,-0.27571 -0.103427,0.269557 c -0.05688,0.148256 -0.103425,0.309841 -0.103425,0.359077 0,0.111257 0.196515,0.113756 0.368625,0.0047 z m 1.423605,-0.432598 c 0.372199,-0.126592 0.955252,-0.368786 1.295673,-0.538209 0.594881,-0.296061 0.623185,-0.326396 0.727921,-0.780135 0.145397,-0.629893 0.553044,-1.445471 0.87818,-1.7569706 0.156096,-0.1495495 0.415432,-0.2731028 0.635076,-0.3025634 0.501658,-0.067286 0.793045,0.1708586 0.864944,0.706905 0.05319,0.396531 0.05591,0.398966 0.28123,0.251332 0.125138,-0.08199 0.227524,-0.194599 0.227524,-0.250235 0,-0.05564 -0.189842,-0.2830554 -0.421871,-0.5053789 -0.597128,-0.5721482 -1.330786,-0.8343838 -2.354995,-0.8417588 -1.026183,-0.00739 -1.620379,0.2323518 -2.25352,0.9092318 -0.560674,0.5994059 -0.82738,1.2041699 -0.884768,2.0062449 -0.04322,0.604094 0.09683,1.331707 0.256324,1.331707 0.03936,0 0.376083,-0.103576 0.748282,-0.23017 z m -3.749754,-0.577364 c 0.09199,-0.229907 0.129503,-0.501473 0.09481,-0.68639 -0.05542,-0.295415 -0.381196,-0.804661 -0.514149,-0.803705 -0.03568,2.87e-4 -0.06514,0.468048 -0.06548,1.039537 -5.75e-4,0.963408 0.01152,1.031493 0.165995,0.935023 0.09163,-0.05723 0.235101,-0.275235 0.318817,-0.484465 z m 9.617841,-2.239902 c 0,-0.1253298 -0.40992,-0.467091 -0.646182,-0.5387351 l -0.215288,-0.065285 0.215288,0.3374887 c 0.139312,0.2183824 0.291322,0.3389194 0.430732,0.3415414 0.1185,0.0022 0.21545,-0.03153 0.21545,-0.07501 z M 90.492876,9.5681999 C 91.199154,9.0126421 91.184032,7.963236 90.463617,7.5376757 90.046332,7.2911801 89.968504,7.3300409 90.125747,7.706377 c 0.176934,0.4234633 0.175784,0.8559581 -0.0038,1.4481055 -0.07843,0.2585271 -0.143061,0.5023665 -0.143631,0.541865 -0.002,0.1366103 0.261404,0.071025 0.51461,-0.1281476 z M 88.100138,7.6627658 C 88.487151,6.951694 88.665351,6.2578023 88.666031,5.4592343 88.666702,4.6687469 88.44101,4.0408077 88.011038,3.6368686 87.582184,3.2339809 86.552043,3.4151465 86.012348,3.9883671 c -0.285623,0.3033658 -1.301587,2.2580673 -1.301587,2.5042364 0,0.08578 0.118496,0.4915013 0.263324,0.901604 l 0.263323,0.74564 0.813909,0.00565 c 0.44765,0.00311 0.964721,0.059964 1.149048,0.1263435 0.412198,0.1484407 0.531394,0.067755 0.899773,-0.6090785 z M 85.208682,7.2594089 c -0.342982,-0.3429821 0.0725,-1.6202711 0.708776,-2.1789247 0.389135,-0.3416655 0.658935,-0.3713329 0.809998,-0.089068 0.257235,0.4806495 -0.292202,1.8269685 -0.895784,2.1949932 -0.357084,0.2177253 -0.465554,0.2304357 -0.62299,0.073 z m 1.102591,-1.31229 c 0.241216,-0.3579408 0.295331,-0.8709005 0.09187,-0.8709005 -0.23499,0 -0.55834,0.4547528 -0.612973,0.8620739 -0.04764,0.3551582 -0.03313,0.3981211 0.124175,0.3678265 0.09796,-0.018866 0.276576,-0.1804158 0.396924,-0.3589999 z M 84.892051,5.4072504 C 85.054908,4.9836741 85.323978,4.4235133 85.489983,4.1624488 85.853496,3.5907794 85.941621,3.0225743 85.730185,2.613702 85.529061,2.2247721 85.193471,2.1505388 84.674381,2.3801571 84.233328,2.5752549 83.989497,2.898369 83.703972,3.6660956 c -0.163704,0.4401686 -0.163461,0.4692098 0.0066,0.7849346 l 0.176562,0.3278558 0.323537,-0.3779811 c 0.211464,-0.2470481 0.403875,-0.3779802 0.555461,-0.3779802 0.210251,0 0.231923,0.039365 0.231923,0.4212705 0,0.3183159 -0.07761,0.5365986 -0.317565,0.8931701 -0.257115,0.3820708 -0.299819,0.5116681 -0.224343,0.6808174 0.05127,0.1149048 0.103709,0.197733 0.116526,0.1840622 0.01282,-0.013671 0.156551,-0.3714182 0.31941,-0.7949945 z M 84.657455,4.8634042 c 0.153444,-0.2190726 0.204866,-0.650111 0.07725,-0.6475056 -0.154201,0.00315 -0.303666,0.1577576 -0.401649,0.4154727 -0.169906,0.4468847 0.05916,0.6107246 0.324404,0.2320329 z m 2.64233,-3.0359697 C 87.162345,1.5706237 86.879625,1.3694729 86.577964,1.3138684 86.161808,1.2371594 85.452187,1.4125259 85.086239,1.682514 l -0.31693,0.2338233 h 0.408985 c 0.555201,0 0.968777,0.3942344 0.968777,0.9234695 V 3.2034833 L 86.764269,2.5917715 C 87.23196,2.1282378 87.361681,1.943088 87.299785,1.8274345 Z"
       id="path860" />
    <g
       aria-label="Coollick"
       id="text12"
       style="font-style:normal;font-variant:normal;font-weight:normal;font-stretch:normal;font-size:27.3169px;line-height:1.25;font-family:'Kunstler Script';-inkscape-font-specification:'Kunstler Script';fill:#000000;fill-opacity:1;stroke:none;stroke-width:0.28455">
      <path
         d="m 17.131341,22.053821 v 0.866991 q -2.24084,2.494268 -4.121544,4.108206 -1.867366,1.627276 -3.6547027,2.494268 -1.7873363,0.88033 -3.4546275,0.88033 -1.4405397,0 -2.4809295,-0.573549 -1.0270514,-0.573548 -1.5605846,-1.680629 -0.5201949,-1.093743 -0.5201949,-2.600975 0,-1.187111 0.3734733,-2.507606 0.3868115,-1.333833 1.1070814,-2.681004 0.7202698,-1.36051 1.7606596,-2.801049 1.053728,-1.44054 2.467591,-3.027801 1.4672164,-1.640615 2.8944177,-2.827726 1.4272012,-1.20045 2.5876362,-1.8807049 1.160435,-0.6802548 2.147471,-1.0137131 1.000375,-0.3334582 1.653953,-0.3334582 0.666916,0 1.133758,0.3201199 0.466842,0.3201199 0.72027,0.9336831 0.253428,0.6135632 0.253428,1.4138632 0,1.507231 -1.027051,3.361259 -1.027052,1.84069 -2.56096,3.561334 -1.533908,1.720645 -2.934432,2.814388 -1.387187,1.080405 -2.0007499,1.080405 -0.4134882,0 -0.7736231,-0.32012 -0.3467966,-0.333459 -0.3467966,-0.746947 0,-0.760285 0.8002998,-1.840689 0.8136378,-1.080405 1.7606598,-1.974073 0.96036,-0.907007 1.147096,-0.907007 0.09337,0 0.09337,0.08003 0,0.120045 -0.146722,0.413489 -0.133383,0.293443 -0.133383,0.360134 0,0.106707 0.08003,0.106707 0.226751,0 1.307156,-1.213788 1.080405,-1.213788 1.974073,-2.667666 0.907006,-1.467216 0.907006,-2.400899 0,-0.386812 -0.173398,-0.586887 -0.16006,-0.213413 -0.493518,-0.213413 -0.933683,0 -2.841065,1.520569 -1.894042,1.507232 -3.894792,3.854778 -1.9874112,2.334208 -3.3212442,4.828475 -1.3338331,2.494268 -1.3338331,4.388311 0,1.093743 0.32012,1.827351 0.3334582,0.733608 0.9603597,1.133758 0.6402399,0.40015 1.533908,0.40015 1.9340579,0 4.3883106,-1.507231 2.454253,-1.507231 5.402024,-4.441664 z"
         style="font-style:normal;font-variant:normal;font-weight:normal;font-stretch:normal;font-size:27.3169px;font-family:'Brush Script MT';-inkscape-font-specification:'Brush Script MT';stroke-width:0.28455"
         id="path11" />
      <path
         d="m 25.587841,22.080498 v 0.893668 q -0.880329,0.8003 -1.413863,1.067066 -0.533533,0.266767 -1.533908,0.213413 -1.733983,2.054103 -3.054477,2.054103 -0.746947,0 -1.36051,-0.493518 -0.613563,-0.493518 -0.987036,-1.347171 -0.360135,-0.853653 -0.360135,-1.907382 0,-0.853653 0.56021,-1.894042 0.573548,-1.04039 1.467216,-1.934058 0.907006,-0.907007 1.934058,-1.453878 1.027051,-0.56021 1.907381,-0.56021 0.626901,0 0.987036,0.200075 0.360135,0.186736 0.360135,0.533533 0,0.266767 -0.306781,0.613563 0.506856,0.106707 0.693593,0.360135 0.186737,0.24009 0.186737,0.893668 0,0.64024 -0.306782,1.613938 -0.293443,0.973698 -0.813638,1.827351 l 0.24009,0.24009 h 0.200075 q 0.226751,0 0.440165,-0.106706 0.226751,-0.120045 0.400149,-0.24009 0.173399,-0.133384 0.760285,-0.573548 z m -2.747696,-3.507981 q -1.107081,0.666916 -1.894043,1.213788 -0.786961,0.533533 -1.333833,1.093743 -0.546871,0.546871 -0.733608,1.107081 -0.333458,1.493893 -0.333458,1.613938 0,0.88033 1.227126,0.88033 0.573549,0 1.92072,-0.987036 -0.226752,-0.626902 -0.226752,-1.20045 0,-0.840315 0.346797,-1.707306 0.346796,-0.88033 1.027051,-2.014088 z"
         style="font-style:normal;font-variant:normal;font-weight:normal;font-stretch:normal;font-size:27.3169px;font-family:'Brush Script MT';-inkscape-font-specification:'Brush Script MT';stroke-width:0.28455"
         id="path13" />
      <path
         d="m 34.137711,22.080498 v 0.893668 q -0.88033,0.8003 -1.413863,1.067066 -0.533533,0.266767 -1.533908,0.213413 -1.733983,2.054103 -3.054478,2.054103 -0.746946,0 -1.360509,-0.493518 -0.613564,-0.493518 -0.987037,-1.347171 -0.360135,-0.853653 -0.360135,-1.907382 0,-0.853653 0.56021,-1.894042 0.573548,-1.04039 1.467216,-1.934058 0.907007,-0.907007 1.934058,-1.453878 1.027052,-0.56021 1.907382,-0.56021 0.626901,0 0.987036,0.200075 0.360135,0.186736 0.360135,0.533533 0,0.266767 -0.306782,0.613563 0.506857,0.106707 0.693593,0.360135 0.186737,0.24009 0.186737,0.893668 0,0.64024 -0.306782,1.613938 -0.293443,0.973698 -0.813638,1.827351 l 0.24009,0.24009 h 0.200075 q 0.226752,0 0.440165,-0.106706 0.226752,-0.120045 0.40015,-0.24009 0.173398,-0.133384 0.760285,-0.573548 z m -2.747696,-3.507981 q -1.107082,0.666916 -1.894043,1.213788 -0.786962,0.533533 -1.333833,1.093743 -0.546872,0.546871 -0.733608,1.107081 -0.333459,1.493893 -0.333459,1.613938 0,0.88033 1.227127,0.88033 0.573548,0 1.920719,-0.987036 -0.226751,-0.626902 -0.226751,-1.20045 0,-0.840315 0.346796,-1.707306 0.346797,-0.88033 1.027052,-2.014088 z"
         style="font-style:normal;font-variant:normal;font-weight:normal;font-stretch:normal;font-size:27.3169px;font-family:'Brush Script MT';-inkscape-font-specification:'Brush Script MT';stroke-width:0.28455"
         id="path15" />
      <path
         d="m 40.486754,21.960453 v 0.987036 q -2.787711,3.694718 -4.535032,3.694718 -0.947022,0 -1.493893,-1.027052 -0.533533,-1.04039 -0.533533,-2.721019 0,-1.36051 0.640239,-3.227876 0.64024,-1.880705 1.707307,-3.801424 1.080404,-1.934058 2.227501,-3.36126 1.160435,-1.440539 2.147471,-2.014087 0.40015,-0.24009 0.626901,-0.24009 0.280105,0 0.373474,0.253428 0.09337,0.24009 0.09337,0.840315 0,1.854028 -1.507231,4.561709 -1.507232,2.694342 -4.201574,5.50873 -0.133384,0.693593 -0.133384,1.067066 0,0.853654 0.360135,1.387187 0.373474,0.533533 1.027052,0.533533 0.333458,0 0.72027,-0.253428 0.386811,-0.266767 0.813638,-0.653578 0.426826,-0.386812 1.667291,-1.533908 z m -3.988161,-2.4009 q 0.693593,-0.680255 1.333833,-1.547246 0.653578,-0.866992 1.227127,-1.854028 0.573548,-0.987036 0.893668,-1.773998 0.333458,-0.786961 0.333458,-1.187111 0,-0.306782 -0.213413,-0.306782 -0.08003,0 -0.306782,0.146722 -0.813638,0.666916 -1.827351,2.614312 -1.013713,1.934058 -1.44054,3.908131 z"
         style="font-style:normal;font-variant:normal;font-weight:normal;font-stretch:normal;font-size:27.3169px;font-family:'Brush Script MT';-inkscape-font-specification:'Brush Script MT';stroke-width:0.28455"
         id="path17" />
      <path
         d="m 46.742434,21.960453 v 0.987036 q -2.787711,3.694718 -4.535032,3.694718 -0.947022,0 -1.493893,-1.027052 -0.533533,-1.04039 -0.533533,-2.721019 0,-1.36051 0.640239,-3.227876 0.64024,-1.880705 1.707307,-3.801424 1.080404,-1.934058 2.227501,-3.36126 1.160435,-1.440539 2.147471,-2.014087 0.40015,-0.24009 0.626902,-0.24009 0.280104,0 0.373473,0.253428 0.09337,0.24009 0.09337,0.840315 0,1.854028 -1.507231,4.561709 -1.507232,2.694342 -4.201574,5.50873 -0.133384,0.693593 -0.133384,1.067066 0,0.853654 0.360135,1.387187 0.373474,0.533533 1.027052,0.533533 0.333458,0 0.72027,-0.253428 0.386811,-0.266767 0.813638,-0.653578 0.426826,-0.386812 1.667291,-1.533908 z m -3.988161,-2.4009 q 0.693594,-0.680255 1.333833,-1.547246 0.653579,-0.866992 1.227127,-1.854028 0.573548,-0.987036 0.893668,-1.773998 0.333458,-0.786961 0.333458,-1.187111 0,-0.306782 -0.213413,-0.306782 -0.08003,0 -0.306782,0.146722 -0.813638,0.666916 -1.827351,2.614312 -1.013713,1.934058 -1.44054,3.908131 z"
         style="font-style:normal;font-variant:normal;font-weight:normal;font-stretch:normal;font-size:27.3169px;font-family:'Brush Script MT';-inkscape-font-specification:'Brush Script MT';stroke-width:0.28455"
         id="path19" />
      <path
         d="m 52.091104,16.144941 q -0.333458,0 -0.64024,-0.253429 -0.293443,-0.253428 -0.293443,-0.640239 0,-0.586887 0.56021,-1.307157 0.56021,-0.72027 1.160434,-0.72027 0.40015,0 0.666917,0.253429 0.266766,0.24009 0.266766,0.706931 0,0.573548 -0.546871,1.267141 -0.546872,0.693594 -1.173773,0.693594 z m 0.907006,5.962233 v 0.973698 q -1.293818,1.667292 -2.414237,2.520945 -1.12042,0.840315 -1.907382,0.840315 -1.093743,0 -1.627276,-1.147097 -0.533533,-1.147096 -0.533533,-2.507606 0,-0.520195 0.106706,-0.987036 0.106707,-0.48018 0.253429,-0.786962 0.146721,-0.306781 0.546871,-0.96036 1.894043,-2.947771 3.467966,-2.947771 0.813638,0 0.813638,0.626902 0,0.426826 -0.533533,1.333833 -0.520195,0.907006 -0.933683,1.293818 -1.160435,1.12042 -1.52057,1.560585 -0.346796,0.440165 -0.346796,1.000374 0,0.48018 0.360135,0.8003 0.360135,0.32012 0.933683,0.32012 0.626901,0 1.373848,-0.453503 0.760285,-0.466842 1.960734,-1.480555 z"
         style="font-style:normal;font-variant:normal;font-weight:normal;font-stretch:normal;font-size:27.3169px;font-family:'Brush Script MT';-inkscape-font-specification:'Brush Script MT';stroke-width:0.28455"
         id="path21" />
      <path
         d="m 60.90774,22.133851 v 0.893668 q -1.427202,1.400525 -2.334208,2.174148 -0.893668,0.773623 -1.68063,1.20045 -0.773623,0.426826 -1.520569,0.426826 -0.733609,0 -1.347172,-0.573548 -0.613563,-0.586887 -0.96036,-1.52057 -0.346796,-0.947021 -0.346796,-2.000749 0,-0.907007 0.40015,-1.613938 0.40015,-0.706932 1.547246,-1.827351 1.36051,-1.333833 2.520944,-2.054103 1.173773,-0.733608 1.84069,-0.733608 0.48018,0 0.813638,0.333458 0.333458,0.333458 0.333458,0.840315 0,0.426826 -0.440165,1.213788 -0.440164,0.786961 -0.987036,1.373848 -0.546871,0.573548 -0.866991,0.573548 -0.346797,0 -0.346797,-0.373473 0.01334,-0.106707 0.01334,-0.200075 0.01334,-0.09337 0.01334,-0.186737 0,-0.16006 -0.120045,-0.173398 -0.106707,-0.02668 -0.266767,0.09337 -1.333833,0.933683 -1.827351,1.320495 -0.493518,0.373473 -0.786962,0.760285 -0.280105,0.386811 -0.280105,0.813638 0,0.786961 0.506857,1.280479 0.506857,0.493519 1.320495,0.493519 0.840314,0 2.014088,-0.64024 1.187111,-0.653578 2.787711,-1.894043 z"
         style="font-style:normal;font-variant:normal;font-weight:normal;font-stretch:normal;font-size:27.3169px;font-family:'Brush Script MT';-inkscape-font-specification:'Brush Script MT';stroke-width:0.28455"
         id="path23" />
      <path
         d="m 70.911488,22.107174 v 0.893668 q -1.493893,1.747322 -2.507606,2.654328 -1.013713,0.893668 -1.693968,0.893668 -0.653578,0 -1.187111,-0.386811 -0.520195,-0.386812 -0.947022,-1.067067 -0.413488,-0.680255 -0.987036,-1.894043 -0.680255,0.840315 -1.227127,1.573923 -0.546871,0.72027 -0.760285,0.96036 -0.213413,0.24009 -0.386811,0.24009 -0.360135,0 -0.520195,-0.453503 -0.16006,-0.466842 -0.16006,-1.347172 0,-1.200449 0.280105,-2.307531 0.293443,-1.120419 0.826976,-2.174148 0.546872,-1.053728 1.387187,-2.267516 0.853653,-1.227126 1.907381,-2.560959 1.453878,-1.84069 2.507606,-3.001124 1.053728,-1.173773 1.827351,-1.76066 0.786962,-0.6002248 1.307157,-0.6002248 0.64024,0 0.64024,0.5735478 0,0.493519 -2.360885,3.561335 -2.360884,3.054477 -6.882578,8.349794 v 1.147097 q 3.027801,-3.241215 4.86849,-4.815138 1.854028,-1.573923 2.867741,-1.573923 0.413488,0 0.64024,0.493519 0.226752,0.48018 0.226752,1.120419 0,1.307157 -1.12042,2.427577 -1.12042,1.107081 -3.441289,2.547621 0.40015,0.600224 0.706931,0.880329 0.306782,0.266767 0.773623,0.266767 0.413489,0 0.893669,-0.280105 0.480179,-0.280105 0.973698,-0.706931 0.506856,-0.426827 1.547246,-1.387187 z m -5.268641,0.680255 q 0.506857,-0.333458 1.253804,-1.027051 0.760284,-0.706932 1.293818,-1.453878 0.533533,-0.760285 0.533533,-1.267142 0,-0.213413 -0.186737,-0.213413 -0.506856,0 -1.747321,0.973698 -1.227126,0.973698 -2.4009,2.494268 0.506857,0 1.253803,0.493518 z"
         style="font-style:normal;font-variant:normal;font-weight:normal;font-stretch:normal;font-size:27.3169px;font-family:'Brush Script MT';-inkscape-font-specification:'Brush Script MT';stroke-width:0.28455"
         id="path25" />
    </g>
  </g>
</svg>
